<?xml version="1.0" standalone="no"?><!DOCTYPE svg PUBLIC "-//W3C//DTD SVG 1.1//EN" "http://www.w3.org/Graphics/SVG/1.1/DTD/svg11.dtd"><svg t="1655765569525" class="icon" viewBox="0 0 1024 1024" version="1.1" xmlns="http://www.w3.org/2000/svg" p-id="6223" xmlns:xlink="http://www.w3.org/1999/xlink" width="200" height="200"><defs><style type="text/css">@font-face { font-family: feedback-iconfont; src: url("//at.alicdn.com/t/font_1031158_u69w8yhxdu.woff2?t=1630033759944") format("woff2"), url("//at.alicdn.com/t/font_1031158_u69w8yhxdu.woff?t=1630033759944") format("woff"), url("//at.alicdn.com/t/font_1031158_u69w8yhxdu.ttf?t=1630033759944") format("truetype"); }
</style></defs><path d="M28.72122 495.5c0 266.9 216.4 483.3 483.3 483.3s483.3-216.4 483.3-483.3S778.92122 12.2 512.02122 12.2 28.72122 228.6 28.72122 495.5z m0 0" fill="#E9EAEB" p-id="6224"></path><path d="M1007.42122 416.9L358.22122 757.5 16.52122 578.3l649.2-340.6 341.7 179.2z m0 0" fill="#E9EAEB" p-id="6225"></path><path d="M358.22122 773.6c-2.6 0-5.1-0.7-7.4-1.9L9.02122 592.5c-5.3-2.8-8.6-8.3-8.6-14.3s3.3-11.5 8.6-14.3l649.2-340.8c4.6-2.4 10.2-2.4 14.8 0l341.7 179.2c5.3 2.8 8.7 8.3 8.7 14.3s-3.3 11.5-8.7 14.3L365.52122 771.8c-2.3 1.1-4.8 1.8-7.3 1.8zM51.12122 578.3l307 161.1L972.72122 417l-307-161L51.12122 578.3z m0 0" fill="#2A5082" p-id="6226"></path><path d="M358.22122 852.7c-2.6 0-5.1-0.7-7.4-1.9L9.02122 671.7c-7.6-4.2-10.5-13.7-6.5-21.5 4-7.7 13.5-10.9 21.3-7l334.4 175.4 641.7-336.7c5.1-2.8 11.4-2.7 16.3 0.4 5 3.1 7.8 8.6 7.5 14.5-0.3 5.8-3.8 11-9 13.6L365.52122 851.2c-2.3 1.1-4.8 1.6-7.3 1.5z m0 0" fill="#2A5082" p-id="6227"></path><path d="M358.22122 931.9c-2.6 0-5.1-0.7-7.4-1.9L9.02122 750.8c-5.3-2.6-8.7-7.8-9-13.6-0.3-5.8 2.6-11.4 7.5-14.5 5-3.1 11.2-3.3 16.3-0.4l334.2 175.3 641.7-336.7c7.8-3.8 17.3-0.7 21.3 7s1.1 17.3-6.5 21.5L365.62122 929.6c-2.2 1.4-4.8 2.1-7.4 2.3z m0 0" fill="#2A5082" p-id="6228"></path><path d="M358.22122 1011.1c-2.6 0-5.1-0.6-7.4-1.9L9.02122 829.8c-5.3-2.6-8.7-7.8-9-13.6-0.3-5.8 2.6-11.4 7.5-14.5 5-3.1 11.2-3.3 16.3-0.4l334.2 175.3 641.7-336.7c7.8-3.8 17.3-0.7 21.3 7s1.1 17.3-6.5 21.5l-649.2 340.8c-2.2 1.2-4.6 1.9-7.1 1.9z m0 0" fill="#2A5082" p-id="6229"></path><path d="M825.12122 405l-136.7-71.7c-21.5 10.9-46.9 10.9-68.3 0L198.52122 554.5c22.7 11.9 19 25.9 0 35.7L335.22122 662c21.4-11 46.8-11 68.2 0L825.12122 440.7c-18.8-9.7-22.7-23.8 0-35.7z m0 0" fill="#FFFFFF" p-id="6230"></path><path d="M403.52122 680.3l-7.4-3.9c-16.7-8.5-36.5-8.5-53.2 0l-7.4 3.9-171.4-90 27.2-14.3c2-1 3.8-2.2 5.6-3.6-1.8-1.4-3.7-2.6-5.7-3.6l-27.2-14.3L620.12122 315.1l7.4 3.9a59.1 59.1 0 0 0 53.4 0l7.4-3.9L859.82122 405l-27.2 14.3c-2 1-3.9 2.2-5.7 3.6 1.8 1.4 3.7 2.7 5.7 3.7l27.2 14-456.3 239.7z m-34.2-42.6c11.6 0 23 2.2 33.8 6.4l394.3-206.9c-2.7-4.3-4.1-9.3-4.2-14.4 0-5 1.4-9.9 3.9-14.2l-109.1-57.3c-21.6 8.6-45.7 8.6-67.3 0L226.42122 558.1c2.5 4.3 3.8 9.3 3.7 14.3 0 5-1.3 10-3.9 14.3L335.62122 644c10.7-4.2 22.1-6.4 33.7-6.3z m0 0" fill="#2A5082" p-id="6231"></path><path d="M656.92122 398.8H689.12122V431h-32.2v-32.2zM334.82122 559.9h32.2v32.2h-32.2v-32.2z m0 0" fill="#2A5082" p-id="6232"></path><path d="M592.52122 631.6L238.12122 431l161.1-80.5 370.4 192.8v258.2L592.52122 897V631.6z m0 0" fill="#A3D4FF" p-id="6233"></path><path d="M592.52122 913c-4.3 0-8.4-1.7-11.4-4.7s-4.7-7.1-4.7-11.4V640.7L230.12122 445c-5.2-2.9-8.4-8.5-8.2-14.4 0.2-6 3.6-11.4 9-14l161.1-80.5c4.6-2.4 10.2-2.4 14.8 0l370.4 192.6c5.4 2.9 8.7 8.5 8.5 14.6v258.2c0 5.9-3.2 11.3-8.4 14.1L600.12122 911.1c-2.3 1.3-4.9 1.9-7.6 1.9zM272.42122 431.9l328.1 185.6c5 2.9 8.2 8.2 8.2 14v238.4l145-78.1V553.1L399.12122 368.6l-126.7 63.3z m0 0" fill="#2A5082" p-id="6234"></path><path d="M238.12122 237.7h32.2v96.6H238.12122z" fill="#BCC0C4" p-id="6235"></path><path d="M205.92122 270h96.7v32.2h-96.7V270zM367.02122 60.6h32.2v96.7h-32.2V60.6z m0 0" fill="#BCC0C4" p-id="6236"></path><path d="M334.82122 92.7h96.6v32.2h-96.6z" fill="#BCC0C4" p-id="6237"></path></svg>