<?xml version="1.0" standalone="no"?><!DOCTYPE svg PUBLIC "-//W3C//DTD SVG 1.1//EN" "http://www.w3.org/Graphics/SVG/1.1/DTD/svg11.dtd"><svg t="1655766054223" class="icon" viewBox="0 0 1024 1024" version="1.1" xmlns="http://www.w3.org/2000/svg" p-id="7065" xmlns:xlink="http://www.w3.org/1999/xlink" width="200" height="200"><defs><style type="text/css">@font-face { font-family: feedback-iconfont; src: url("//at.alicdn.com/t/font_1031158_u69w8yhxdu.woff2?t=1630033759944") format("woff2"), url("//at.alicdn.com/t/font_1031158_u69w8yhxdu.woff?t=1630033759944") format("woff"), url("//at.alicdn.com/t/font_1031158_u69w8yhxdu.ttf?t=1630033759944") format("truetype"); }
</style></defs><path d="M963.048 587.678c-1.803 59.98-26.607 106.786-76.222 139.504-26.156 17.265-55.021 24.991-86.592 25.447-44.65 0.45-88.85 0.45-133.5 0.45-44.65 0.455-89.753 0.455-134.403 0.91-64.944 0.91-129.892 0.91-195.287 0.91-37.433 0-75.318 0.91-112.756 0.91-34.276 0-65.847-9.997-93.357-29.992C91.691 698.1 68.693 659.93 62.38 612.218c-9.472-73.162 28.86-141.775 96.062-172.672 30.673-14.088 63.142-17.725 96.519-11.818 7.664 1.365 7.664 1.365 9.471-5.907 15.334-63.16 52.316-109.057 110.95-135.408 57.278-26.357 115.005-23.631 171.384 4.995 29.764 14.995 53.67 37.26 72.161 65.437 2.706 4.086 4.96 5.906 10.822 5.452 31.124-4.092 61.34 0.454 90.205 14.538 21.647 10.452 39.687 24.992 54.574 43.626 2.705 3.631 5.41 2.27 8.567 2.27 24.353-1.82 48.26 0.456 71.71 9.088 35.179 12.723 62.693 35.444 82.986 66.797 13.532 20.905 21.648 44.075 24.358 69.067 0.447 5.911 0.447 12.727 0.9 19.995zM466.032 542.69c1.355-0.905 2.254-1.36 3.157-1.36 41.042-14.088 78.927-59.98 77.125-111.328-1.355-28.628-13.983-49.532-40.59-60.89-24.359-9.997-49.163-9.997-73.968-1.365-49.163 17.269-79.378 51.348-87.048 103.606-2.253 15.904-0.447 31.352 8.121 45.437 9.02 14.997 22.552 24.085 38.337 30.447 27.962 10.903 56.376 21.355 84.337 32.263 2.705 0.91 6.766 0.91 5.41 5.906-2.705 8.632-0.446 7.727-8.115 7.727-18.04 0-36.082 0-54.122 0.45-7.665 0-7.665 0.455-9.471 8.182-1.35 5.907-1.35 5.907 4.963 5.907h58.178c3.157 0 4.061 0.91 3.157 4.09-4.96 21.356-9.47 42.712-14.43 64.071-0.904 4.997-4.06 7.723-9.02 7.723-5.415 0.455-10.826 0.455-16.688 0.91-0.903 0-2.706-0.455-2.254 1.816 1.35 4.09 2.254 8.636 4.959 12.723 1.802 2.726 5.41 0.91 8.116 0.91 4.513 0 8.572 0 13.08-0.91 10.375-1.816 19.394-7.722 22.1-19.54 4.06-20.445 9.02-40.896 13.983-61.341 2.254-9.997 2.254-9.997 12.628-9.997 12.177 0 9.472 2.27 12.628-10.907 0.452-2.726 0-3.637-2.705-3.637h-13.983c-2.705 0-3.157-0.45-2.254-3.18 2.254-9.542 4.508-19.085 6.766-28.172 1.35-4.997 0-6.817-4.963-8.178-13.08-4.09-24.806-7.726-37.434-11.363z m88.85 44.987h-17.588c-3.157 0-4.511 1.365-5.414 4.546-7.214 32.263-14.431 64.976-21.65 97.24-0.902 3.18 0.453 4.09 3.159 4.09h15.333c2.71 0 4.06-0.91 4.512-3.636 2.705-11.813 5.41-23.626 7.67-35.443 0.898-3.181 2.253-4.542 5.41-4.542 6.314 0 12.629 0.455 18.49-1.365 14.882-3.636 27.51-10.903 33.373-25.902 5.868-15.449-1.35-29.082-17.135-33.168-8.121-2.275-17.14-1.82-26.16-1.82z m242.642-27.262c-7.665-12.724-14.881-24.991-22.099-37.264-1.35-2.271-1.35-3.631 0.903-4.997 8.12-6.816 16.238-13.633 24.354-19.994 1.806-1.816 4.06-3.637 6.314-5.908-13.076-1.814-25.257-2.27-33.825 9.089-2.705 3.18-6.314 5.906-9.47 8.636-2.254 1.816-4.508 4.542-7.665 5.906 4.507-20.905 9.019-40.895 13.527-61.345 0.903-4.545-0.452-4.997-4.057-4.545-4.06 0.91-8.12 1.364-12.18 1.364-4.508 0-5.41 2.271-6.315 6.363-2.705 12.722-5.862 25.9-8.568 38.624l-13.531 61.345c-0.899 3.18 0 4.086 3.157 4.086h13.08c3.61 0.456 5.415-0.905 6.315-4.996 1.805-9.088 4.06-17.724 6.313-27.717 6.314 10.903 11.73 20.9 17.14 30.443 0.904 1.815 1.803 4.09 4.508 3.18 6.314-1.365 13.983 0 22.1-2.27z m-508.288 13.178s0 0.455 0 0a658.819 658.819 0 0 1-42.397 0c-5.862 0-8.568 1.36-9.02 7.268-0.902 5.91-1.35 5.91 4.965 5.91h68.1c2.705 0 4.963-0.454 4.06 3.631-6.313 28.178-12.628 55.894-18.942 84.066-1.807 7.727-4.512 9.543-12.177 9.998h-4.512c-12.628 0-12.176 0-8.116 11.813 0.9 3.18 2.705 4.09 5.41 4.09 5.864 0 11.275-0.454 17.141-0.91 11.273-1.36 19.39-8.631 22.1-19.995 7.664-33.623 14.882-67.247 22.998-100.874 0.903-4.542-0.451-4.997-4.056-4.997h-45.554z m82.535 48.618c-5.862 24.54-10.826 48.167-16.688 71.797-0.903 4.09-0.903 6.362 4.512 5.907 3.157-0.455 6.314 0 9.922 0.455 3.605 0 5.864-1.365 6.762-5.452 6.767-31.358 13.983-62.255 20.75-93.153 0.451-2.271 1.354-4.545 3.156-6.361 6.314-7.727 12.629-16.36 18.04-24.537 1.806-2.73 1.354-4.09-1.803-5-3.608-0.91-7.669-2.272-11.277-3.636-2.706-0.91-4.057-0.456-5.411 1.82-11.273 19.99-27.511 34.988-45.554 48.617-10.821 7.727-10.821 7.272-4.056 18.634 1.35 2.27 2.705 2.726 4.96 1.361 4.963-4.091 10.374-7.272 16.687-10.452z m208.368-65.887c-2.254 6.817 1.354 6.817 4.962 6.362 3.605-0.455 7.665-0.455 11.275-0.455 2.254 0 3.608-0.456 4.51-3.182 4.509-21.355 9.473-42.26 13.98-63.16 0.452-2.726-0.451-3.18-2.705-3.18-4.512 0-8.569 0.454-13.08 0-4.508-0.457-6.315 1.814-7.218 5.906-2.705 12.723-5.41 25.446-8.567 38.169-1.803 7.272-7.218 11.362-14.431 11.362-6.766 0-9.471-3.18-8.121-9.996 2.705-13.635 5.863-27.268 9.02-40.445 0.903-4.087 0-4.997-4.056-4.997-4.513 0.455-9.47 0-13.983 0-2.254 0-3.157 0.455-4.061 3.181-3.604 16.359-7.665 32.718-10.822 49.077-2.254 10.903 4.508 18.63 15.786 19.084 9.923 0.45 18.04-2.73 27.51-7.726z m63.14 135.864h8.121c2.254 0 4.96 0.455 4.508-3.631-0.452-2.275 0-4.546 0-6.817 0-0.455 0.451-0.91 0.451-1.365 2.706-11.814 5.411-24.081 8.117-35.9 2.71-12.267-2.254-20.444-14.882-22.715-13.08-2.275-26.16 0.45-38.337 5.452-1.35 0.454-2.705 1.36-2.705 3.18 0 7.723 1.807 9.087 9.02 7.272 2.257-0.455 4.511-1.365 6.314-1.82 4.06-0.455 8.12-0.91 12.177 0 4.06 0.91 6.313 3.635 5.866 7.727 0 4.541-2.71 5.451-6.766 5.451-4.511 0-9.019 0.455-13.531 0.91-13.983 1.36-26.16 10.903-29.317 22.72-3.157 10.449 1.355 18.176 11.73 20.902 8.568 2.27 15.784 0 23.449-3.637 2.254-1.36 4.512-2.726 4.964 1.366 0.448 1.815 2.254 1.36 3.605 1.36 3.157 0 5.866-0.455 7.216-0.455z m-439.735-13.174c1.354-0.91 2.705-1.364 3.608-2.275 13.531-8.632 26.16-18.174 36.982-29.533 2.705-2.73 4.06-2.73 6.766 0 7.67 8.177 15.334 15.904 22.1 24.536 2.705 3.637 4.511 3.182 7.217 0.456 2.705-2.726 4.96-5.001 8.116-7.272 2.705-2.27 2.705-3.635 0-6.361-8.568-8.633-17.136-17.27-26.156-24.992-3.156-2.726-3.156-4.09-0.902-7.272 4.506-5.906 8.116-12.722 10.821-19.54 1.355-2.725 0.903-4.085-1.802-4.996-4.06-1.365-8.117-2.726-12.177-4.545-2.706-0.907-4.06-0.456-5.411 2.274-2.709 5.451-5.867 10.904-9.024 16.355-11.724 18.179-27.058 32.718-44.2 45.442-1.35 1.364-4.506 1.819-3.156 4.545 1.807 3.636 3.61 7.267 5.863 10.903 0 1.365 0.903 1.82 1.355 2.275z m484.386 14.54c12.629 0.454 23.003-3.637 31.12-12.724 9.47-10.907 7.669-22.265-4.508-29.537-3.609-2.271-8.12-4.087-11.73-6.362-1.802-1.36-4.056-2.726-3.604-5.452 0.448-2.726 3.158-4.09 5.863-4.545 3.608-0.451 6.765-0.451 10.37 0.455 9.024 2.726 9.024 2.275 13.983-5.452 0-0.454 0.452-0.454 0.452-0.91 1.802-2.27 1.802-4.086-1.356-4.996-11.724-4.546-23.901-5.451-35.626 0.455-9.024 4.542-14.887 11.358-14.887 21.81-0.451 9.998 6.766 14.995 14.436 18.63 2.254 1.365 4.507 2.271 6.765 4.09 1.802 1.362 4.056 2.271 3.605 5.452-0.447 3.182-2.706 4.091-5.411 4.996-4.96 1.366-9.472-0.45-14.431-1.36-3.157-0.454-6.765-4.546-9.47-2.27-2.71 1.816-4.062 5.906-6.316 8.632-1.805 2.725-1.354 3.636 1.351 4.996 6.314 2.726 13.08 4.092 19.394 4.092z m82.536-73.16c-7.218-0.454-14.43 1.366-20.745 5.907-7.217 5.452-11.73 12.268-11.278 21.355 0.452 8.638 6.315 12.724 13.08 16.36 2.706 1.365 5.411 3.181 8.117 4.545 2.258 1.362 4.06 2.726 3.156 5.907-0.898 2.726-3.156 4.091-5.862 4.091-4.508 0.455-9.47 0-13.978-1.365-9.923-3.181-9.923-3.181-15.334 5.907-1.807 2.726-1.807 4.545 1.35 5.456 2.706 0.905 5.412 2.27 8.121 2.726 15.786 3.635 30.216 1.36 41.489-10.908 9.472-10.452 8.12-22.266-4.055-29.537-3.61-2.27-7.67-4.087-11.28-6.362-2.252-1.36-4.506-2.726-4.054-5.452 0.447-3.18 2.705-4.09 5.41-4.996 5.411-1.365 10.375 0 14.883 1.816 1.354 0.455 3.157 2.27 4.511 0.455 2.254-3.636 5.862-6.816 6.766-11.358 0.447-1.366-1.806-1.366-2.71-1.82-4.959-1.816-10.821-2.726-17.587-2.726z m-62.69-129.956c-21.648-0.455-41.042 11.357-48.26 29.987-7.668 18.63-1.801 37.715 20.75 42.26 9.02 1.816 18.039 0.91 27.058-1.815 9.02-2.73 8.569-2.73 6.766-11.817-0.451-2.726-1.354-3.182-4.06-2.271-4.507 1.816-9.02 1.816-13.532 2.27-9.02 0.455-15.786-5.907-16.233-14.994-0.902-17.72 13.98-30.442 33.374-28.171 2.705 0.455 5.862 3.635 8.567 0.91 2.259-2.276 3.157-5.456 4.964-8.637v-0.455c1.803-2.727 0.452-3.632-1.807-4.542-6.313-2.27-12.176-2.725-17.586-2.725zM176.035 698.55h4.96c3.607 0.456 4.962-0.905 5.861-4.54 6.766-30.899 13.532-61.8 20.75-92.7 0.898-3.18 0.451-4.545-3.158-4.545h-11.73c-2.705 0-4.056 0.456-4.959 3.636-6.765 29.537-13.531 58.62-20.298 88.157-2.252 9.992-2.252 9.992 8.574 9.992z m451.008-136.774h7.67c2.705 0 3.608-0.905 4.06-3.18 4.507-20.901 9.02-41.805 13.528-62.251 0.903-3.18 0-4.092-3.157-4.092-4.057 0-8.118 0.456-11.726 0-5.41-0.91-6.765 1.821-7.67 6.363-3.603 17.723-7.664 35.443-11.724 53.163-1.802 10.453-1.802 10.453 9.02 9.997z m-177.699 97.7c-0.447-1.366-0.898-2.276-1.35-3.637-3.608-9.997-8.12-19.085-13.531-27.717-6.315-9.541-2.706-8.636-13.532-3.635-1.35 0.905-3.157 1.815-4.508 2.27-1.807 0.91-2.705 1.816-1.807 4.091 5.416 10.448 9.472 21.81 13.08 33.17 0.452 1.819 1.356 2.725 3.61 2.274 4.962-1.82 10.374-3.181 15.333-4.546 1.355-0.91 2.705-0.454 2.705-2.27z m-219.188-74.07c-0.451-0.454-0.903-1.364-1.807-2.27-4.507-5.456-9.019-10.453-13.531-15.453-9.02-9.993-9.02-9.542-19.841-1.36-2.258 1.815-2.258 2.725-0.451 4.996 4.06 4.546 7.664 9.998 11.724 14.543 3.157 3.181 4.06 9.997 9.02 9.997 4.512-0.454 8.572-4.546 12.628-6.816 0.451-0.456 0.904-0.456 1.355-0.91 0.903-1.36 1.35-1.815 0.903-2.726z m415.83-106.786c6.766 0 13.984-6.811 13.531-13.174 0-5-4.06-8.636-9.47-8.636-6.767 0-13.532 6.817-13.532 12.723 0 5.456 4.06 9.087 9.47 9.087z m-143.419-39.074c-2.71 34.078-15.785 62.25-47.808 78.154-10.826 5.452-22.55 7.272-34.727 4.547-17.14-3.182-29.769-16.36-31.57-34.084-4.061-36.35 9.019-65.887 38.783-86.788 12.628-9.09 27.063-11.817 42.397-9.541 18.04 2.725 31.57 18.63 32.925 38.169 0.448 3.18 0 6.362 0 9.543z m46.905 194.938c-2.254 0.451-3.608-1.365-2.254-5.911 1.802-6.812 3.157-13.629 4.508-20.445 0.451-3.182 1.807-5.451 5.862-5.001 1.807 0.455 3.608 0 4.964 0 5.41 0.455 10.821 1.82 13.08 7.727 2.254 5.906 0 10.452-3.608 14.993-5.416 6.362-12.629 7.727-22.552 8.637z m88.849 26.808c-0.451 1.819-0.903 4.09-0.903 5.906-1.802 8.636-11.273 14.543-20.297 12.267-4.056-0.905-5.41-3.63-4.056-7.722 1.351-4.545 4.508-6.816 8.568-8.182 5.41-2.27 10.826-3.18 16.688-2.27z" fill="#3366CC" p-id="7066"></path></svg>