<?xml version="1.0" standalone="no"?><!DOCTYPE svg PUBLIC "-//W3C//DTD SVG 1.1//EN" "http://www.w3.org/Graphics/SVG/1.1/DTD/svg11.dtd"><svg t="1655849323096" class="icon" viewBox="0 0 1024 1024" version="1.1" xmlns="http://www.w3.org/2000/svg" p-id="1165" xmlns:xlink="http://www.w3.org/1999/xlink" width="200" height="200"><defs><style type="text/css">@font-face { font-family: feedback-iconfont; src: url("//at.alicdn.com/t/font_1031158_u69w8yhxdu.woff2?t=1630033759944") format("woff2"), url("//at.alicdn.com/t/font_1031158_u69w8yhxdu.woff?t=1630033759944") format("woff"), url("//at.alicdn.com/t/font_1031158_u69w8yhxdu.ttf?t=1630033759944") format("truetype"); }
</style></defs><path d="M551.5776 755.7632c0-121.088 98.1504-219.1872 219.1872-219.1872 36.9664 0 71.7312 9.1648 102.2976 25.344 2.6624-18.2784 4.096-36.9152 4.096-55.9104 0-211.2512-171.2128-382.464-382.464-382.464s-382.464 171.2128-382.464 382.464 171.2128 382.464 382.464 382.464c32.2048 0 63.488-4.0448 93.3888-11.52a218.5984 218.5984 0 0 1-36.5056-121.1904z" fill="#FF6950" p-id="1166"></path><path d="M653.9264 570.368c-108.544 13.1072-192.6656 105.472-192.6656 217.5488 0 36.1472 8.7552 70.2464 24.2688 100.3008 3.072 0.0512 6.0928 0.256 9.216 0.256 32.2048 0 63.488-4.0448 93.3888-11.52a218.30144 218.30144 0 0 1-36.5056-121.1392c-0.0512-78.1312 40.8064-146.6368 102.2976-185.4464zM494.7456 123.5456c-62.0032 0-120.5248 14.848-172.288 41.0624a382.60224 382.60224 0 0 1 81.9712-8.9088c210.944 0 381.952 170.752 382.4128 381.5424 30.976 2.2528 60.16 10.9056 86.272 24.6784 2.6624-18.2784 4.096-36.9152 4.096-55.9104 0-211.2512-171.2128-382.464-382.464-382.464z" fill="#F4403B" p-id="1167"></path><path d="M770.816 755.7632m-154.1632 0a154.1632 154.1632 0 1 0 308.3264 0 154.1632 154.1632 0 1 0-308.3264 0Z" fill="#F5D126" p-id="1168"></path><path d="M770.816 601.6c-10.0864 0-19.968 1.024-29.5424 2.8672 71.0144 13.7728 124.6208 76.288 124.6208 151.296 0 75.0592-53.6064 137.5232-124.6208 151.296 9.5744 1.8432 19.4048 2.8672 29.5424 2.8672 85.1456 0 154.1632-69.0176 154.1632-154.1632s-69.0176-154.1632-154.1632-154.1632z" fill="#F2B200" p-id="1169"></path><path d="M566.9376 755.7632c0-112.384 91.4432-203.8272 203.8272-203.8272 33.0752 0 65.9456 8.1408 95.1296 23.552 4.4032 2.304 9.6768 2.3552 14.1312 0.1024 4.4544-2.2528 7.5264-6.5536 8.2432-11.4688 2.816-19.3536 4.2496-38.912 4.2496-58.112 0-219.3408-178.4832-397.824-397.824-397.824s-397.824 178.4832-397.824 397.824 178.4832 397.824 397.824 397.824c32.7168 0 65.3824-4.0448 97.1264-11.9808 4.8128-1.2288 8.8064-4.7104 10.5984-9.3696 1.792-4.6592 1.2288-9.8816-1.536-14.0288a203.56096 203.56096 0 0 1-33.9456-112.6912z m-72.192 117.2992c-202.4448 0-367.104-164.6592-367.104-367.104 0-202.4448 164.7104-367.104 367.104-367.104s367.104 164.6592 367.104 367.104c0 10.9056-0.512 21.9648-1.4848 32.9728a235.136 235.136 0 0 0-89.5488-17.7664c-129.3312 0-234.5472 105.216-234.5472 234.5472 0 38.912 9.5232 76.8 27.7504 110.7456-22.784 4.4032-46.0288 6.6048-69.2736 6.6048z" fill="#333333" p-id="1170"></path><path d="M770.816 586.24c-93.4912 0-169.5232 76.032-169.5232 169.5232s76.032 169.5232 169.5232 169.5232 169.5232-76.032 169.5232-169.5232-76.032-169.5232-169.5232-169.5232z m0 308.3264c-76.544 0-138.8032-62.2592-138.8032-138.8032s62.2592-138.8032 138.8032-138.8032 138.8032 62.2592 138.8032 138.8032-62.2592 138.8032-138.8032 138.8032zM603.136 562.4832c8.4992 0 15.36-6.8608 15.36-15.36s-6.8608-15.36-15.36-15.36H510.1056V469.7088h93.0304c8.4992 0 15.36-6.8608 15.36-15.36s-6.8608-15.36-15.36-15.36h-79.0016l55.7568-77.9264c4.9152-6.912 3.328-16.4864-3.5328-21.4528a15.37024 15.37024 0 0 0-21.4016 3.5328L494.336 427.8272 434.6368 343.2448a15.34976 15.34976 0 0 0-21.4016-3.6864c-6.912 4.9152-8.6016 14.4896-3.6864 21.4016l55.04 78.0288H386.4064c-8.4992 0-15.36 6.8608-15.36 15.36s6.8608 15.36 15.36 15.36h93.0304v62.0032H386.4064c-8.4992 0-15.36 6.8608-15.36 15.36s6.8608 15.36 15.36 15.36h93.0304v62.6176c0 8.4992 6.8608 15.36 15.36 15.36s15.36-6.8608 15.36-15.36v-62.6176h92.9792z" fill="#333333" p-id="1171"></path><path d="M843.6224 740.4032h-145.6128c-8.4992 0-15.36 6.8608-15.36 15.36s6.8608 15.36 15.36 15.36h145.6128c8.4992 0 15.36-6.8608 15.36-15.36s-6.8608-15.36-15.36-15.36z" fill="#333333" p-id="1172"></path><path d="M209.5104 521.3184c-8.4992 0-15.36-6.8608-15.36-15.36 0-90.1632 39.936-174.7456 109.6192-232.1408a15.34976 15.34976 0 0 1 19.5072 23.7056c-62.5664 51.5072-98.4064 127.488-98.4064 208.4352 0 8.4992-6.8608 15.36-15.36 15.36z" fill="#FFFFFF" p-id="1173"></path><path d="M367.3088 266.1376c-5.632 0-11.0592-3.1232-13.7728-8.4992a15.34464 15.34464 0 0 1 6.8608-20.5824c6.6048-3.2768 13.3632-6.4 20.1216-9.1648 7.8336-3.2256 16.8448 0.512 20.0704 8.3456 3.2256 7.8336-0.512 16.8448-8.3456 20.0704-6.0416 2.5088-12.1344 5.2736-18.0736 8.192-2.2016 1.0752-4.5568 1.6384-6.8608 1.6384z" fill="#FFFFFF" p-id="1174"></path><path d="M681.5232 732.7744c-1.8944 0-3.84-0.3584-5.6832-1.1264a15.33952 15.33952 0 0 1-8.5504-19.968c13.7728-34.4576 37.8368-46.7456 40.5504-48.0256 7.68-3.6352 16.8448-0.4096 20.48 7.2704 3.6352 7.6288 0.4608 16.6912-7.1168 20.3776-0.9216 0.4608-16.128 8.6016-25.3952 31.7952a15.3088 15.3088 0 0 1-14.2848 9.6768z" fill="#FFFFFF" p-id="1175"></path></svg>