<?xml version="1.0" standalone="no"?><!DOCTYPE svg PUBLIC "-//W3C//DTD SVG 1.1//EN" "http://www.w3.org/Graphics/SVG/1.1/DTD/svg11.dtd"><svg t="1656543147680" class="icon" viewBox="0 0 1280 1024" version="1.1" xmlns="http://www.w3.org/2000/svg" p-id="3480" width="250" height="200" xmlns:xlink="http://www.w3.org/1999/xlink"><defs><style type="text/css">@font-face { font-family: feedback-iconfont; src: url("//at.alicdn.com/t/font_1031158_u69w8yhxdu.woff2?t=1630033759944") format("woff2"), url("//at.alicdn.com/t/font_1031158_u69w8yhxdu.woff?t=1630033759944") format("woff"), url("//at.alicdn.com/t/font_1031158_u69w8yhxdu.ttf?t=1630033759944") format("truetype"); }
</style></defs><path d="M970.496 881.4976c0 15.0784-11.2128 27.3024-25.0496 27.3024H334.5664c-13.8496 0-25.0624-12.224-25.0624-27.3024V215.04c0-15.0912 11.2128-27.3024 25.0624-27.3024h610.8928c13.8368 0 25.0496 12.224 25.0496 27.3024v666.4576z" fill="#B3B3B3" p-id="3481"></path><path d="M970.496 846.4512c0 15.0784-11.2128 27.3024-25.0496 27.3024H334.5664c-13.8496 0-25.0624-12.224-25.0624-27.3024V179.9936c0-15.0912 11.2128-27.3152 25.0624-27.3152h610.8928c13.8368 0 25.0496 12.224 25.0496 27.3152v666.4576z" fill="#E5E7E6" p-id="3482"></path><path d="M355.0464 205.3248h569.8944v609.3056H355.0464z" fill="#FFFFFF" p-id="3483"></path><path d="M834.88 203.392l-0.0384-0.0384a26.4448 26.4448 0 0 0-6.1824-6.0544c-28.5696-27.8784-46.4128-44.5568-46.4128-44.5568H497.7664s-17.8304 16.6784-46.4128 44.5568a25.728 25.728 0 0 0-6.1824 6.0544c-0.0256 0-0.0256 0.0128-0.0256 0.0256a24.2944 24.2944 0 0 0-4.6592 14.2848c0 13.5168 11.136 24.5248 25.0496 25.1136l0.0384 0.0512H814.464l0.0384-0.0512c13.9392-0.6016 25.0496-11.5968 25.0496-25.1136a24.6528 24.6528 0 0 0-4.672-14.272z" fill="#F4C258" p-id="3484"></path><path d="M497.152 115.2h285.696v37.5424H497.152z" fill="#FAD362" p-id="3485"></path><path d="M865.3312 465.5872a30.0544 30.0544 0 0 1-30.0544 30.0544H444.7104a30.0544 30.0544 0 0 1-30.0544-30.0544V325.376a30.0416 30.0416 0 0 1 30.0544-30.0416h390.5792a30.0416 30.0416 0 0 1 30.0544 30.0416v140.2112z" fill="#23B08D" p-id="3486"></path><path d="M867.4432 381.0048c-0.1408-0.0128-60.3776-0.0128-60.5312-0.0384-15.3216-0.064-30.656 0.1408-45.9648-0.0896-6.1312-0.0768-10.0736 2.2784-12.5824 7.8336-1.5488 3.4304-2.8416 7.1552-5.8496 10.3296-4.8-6.6048-8.064-13.2608-11.6736-19.6864a9484.9024 9484.9024 0 0 0-36.7104-64.8704c-1.0752-1.8688-1.9072-4.7616-4.8896-4.0192-2.2784 0.5632-2.7008 2.9696-3.2 5.0176a76.9792 76.9792 0 0 0-0.768 3.4048c-7.232 34.304-14.2464 68.6592-21.4656 102.976-0.3712 1.8432-0.3584 3.904-2.0608 6.0544-11.968-23.6928-23.3728-46.7712-34.9568-69.7728-1.152-2.2784-2.176-4.608-3.6608-6.72-1.9712-2.8672-4.0448-2.7648-6.08-0.128-2.1504 2.7904-3.4944 6.016-4.928 9.1904a1596.9408 1596.9408 0 0 1-19.52 41.6c-0.7168 1.472-0.896 3.4944-3.264 4.2624-10.5344-28.7488-20.9536-57.3056-31.5136-85.8112-1.344-3.6992-1.2928-10.0864-6.0928-9.6768-4.3392 0.3712-4.0704 6.656-5.056 10.56-8.7808 35.1872-18.368 70.144-26.7904 105.4208 0.2816-2.0864-0.8064-3.9552-1.3312-5.8624-2.7904-10.3168-5.7856-20.5568-8.7424-30.8224-2.3296-8.0512-3.7376-9.1264-12.3392-9.1904-8.2688-0.064-76.6464-0.0768-84.928-0.0512v16.9856c4.6592 0.3328 69.4144 0.7936 74.048 0.4224 6.528-0.512 8.9472 1.5744 10.5472 7.6544 5.9392 22.6816 12.544 45.2096 18.9312 67.776 0.7808 2.7648 0.9344 6.9632 4.5824 6.8992 3.6992-0.064 3.52-4.352 4.288-7.0912 6.4256-23.0528 11.712-46.4 17.856-69.5168 3.84-14.3744 7.2448-28.864 11.5456-44.1984 7.9744 21.1584 15.0656 41.3184 22.464 61.3504 2.2528 6.1056 4.4928 12.2112 6.6816 18.3168 0.8576 2.3808 1.7664 5.504 4.416 5.8496 2.9696 0.384 3.84-2.9312 4.9664-5.1072 3.2384-6.1696 6.208-12.4672 9.1776-18.7648 5.952-12.6592 11.392-25.6 18.3168-38.6432l30.0416 60.0704a822.528 822.528 0 0 0 13.0432 24.6272c1.0368 1.9072 1.9328 4.8512 4.6976 4.288 2.5088-0.5248 2.8672-3.3792 3.4304-5.6192 0.2432-0.896 0.3968-1.8176 0.6016-2.7264 3.8784-16.9856 7.1424-34.0992 10.7776-51.136 4.2752-20.0704 8.1664-40.2304 12.9024-61.1072 14.72 25.8944 28.6464 51.0848 42.9568 76.0064 3.4944 6.0928 5.7472 6.08 8.9984-0.0128a489.856 489.856 0 0 0 11.5584-23.04c1.7408-3.7248 4.16-5.6832 8.4096-6.144 23.0656-2.5472 91.2 0.064 94.5664-0.3584h5.0816v-16.6912z" fill="#E9EEF1" p-id="3487"></path><path d="M860.3392 590.144H419.6864a22.0288 22.0288 0 1 1 0-44.032h440.6528a22.016 22.016 0 1 1 0 44.032zM860.3392 673.3056H419.6864a22.016 22.016 0 1 1 0-44.032h440.6528a22.016 22.016 0 0 1 0 44.032zM860.3392 756.48H419.6864a22.0416 22.0416 0 0 1 0-44.0576h440.6528a22.016 22.016 0 0 1 0 44.0576z" fill="#CCCCCC" p-id="3488"></path></svg>